<?xml version="1.0" standalone="no"?>
<!DOCTYPE svg PUBLIC "-//W3C//DTD SVG 20010904//EN"
 "http://www.w3.org/TR/2001/REC-SVG-20010904/DTD/svg10.dtd">
<svg version="1.0" xmlns="http://www.w3.org/2000/svg"
 width="538.000000pt" height="538.000000pt" viewBox="0 0 538.000000 538.000000"
 preserveAspectRatio="xMidYMid meet">
<metadata>
Created by potrace 1.11, written by Peter Selinger 2001-2013
</metadata>
<g transform="translate(0.000000,538.000000) scale(0.100000,-0.100000)"
fill="#000000" stroke="none">
<path d="M2340 5191 c0 -7 -4 -10 -9 -6 -5 3 -12 1 -16 -5 -3 -5 -15 -10 -26
-10 -11 0 -18 -4 -15 -8 2 -4 -15 -20 -40 -36 -24 -15 -42 -32 -38 -37 3 -5
-4 -9 -15 -9 -12 0 -21 -4 -21 -10 0 -5 -7 -10 -15 -10 -8 0 -15 -5 -15 -11 0
-6 -9 -8 -21 -4 -16 6 -20 4 -14 -6 6 -11 5 -11 -5 -2 -7 6 -19 9 -26 6 -8 -3
-14 0 -14 7 0 10 -3 10 -15 0 -12 -10 -15 -10 -15 1 0 9 -3 10 -8 4 -4 -5 -20
-11 -37 -13 -16 -2 -32 -8 -33 -13 -2 -5 -7 -7 -12 -4 -4 3 -27 -14 -51 -36
-24 -23 -38 -38 -31 -35 18 11 15 -1 -8 -24 -12 -12 -18 -25 -15 -30 6 -9 -34
-26 -50 -21 -26 8 -52 6 -79 -7 -33 -16 -89 -71 -94 -92 -2 -8 -9 -18 -15 -22
-8 -5 -7 -8 3 -8 13 -1 12 -3 -2 -13 -12 -9 -14 -17 -7 -30 7 -11 6 -17 -1
-17 -5 0 -10 -7 -10 -15 0 -21 -7 -19 -59 14 -111 71 -253 100 -471 95 -135
-2 -215 -14 -316 -45 -70 -22 -82 -40 -70 -101 23 -114 181 -320 356 -462 66
-55 229 -166 242 -166 3 0 19 -5 35 -11 26 -10 27 -11 10 -24 -10 -7 -18 -16
-17 -20 1 -4 -7 -17 -18 -30 -11 -13 -18 -26 -15 -29 4 -3 1 -6 -6 -6 -8 0
-11 -7 -7 -15 3 -8 1 -15 -4 -15 -5 0 -7 -9 -5 -20 2 -11 -2 -20 -8 -20 -8 0
-8 -3 -2 -8 17 -12 11 -45 -10 -53 -11 -4 -16 -8 -12 -8 4 -1 2 -7 -5 -15 -7
-8 -17 -11 -22 -8 -5 3 -15 -3 -22 -12 -7 -10 -16 -18 -21 -19 -4 -1 -7 -6 -5
-10 1 -5 -2 -6 -8 -2 -13 8 -42 -14 -34 -26 3 -5 -3 -6 -12 -2 -12 4 -15 3
-10 -5 4 -7 2 -12 -4 -12 -14 0 -60 -46 -60 -60 0 -6 -4 -9 -8 -6 -5 3 -15 -6
-22 -19 -7 -14 -17 -25 -22 -25 -5 0 -6 -4 -3 -10 3 -5 1 -10 -5 -10 -7 0 -9
-7 -6 -16 3 -8 2 -12 -4 -9 -6 3 -10 -5 -10 -18 0 -14 -7 -28 -16 -31 -9 -4
-12 -11 -7 -18 10 -16 5 -49 -10 -67 -9 -11 -9 -13 -1 -8 7 4 14 0 18 -8 3 -8
0 -15 -7 -15 -7 0 -8 -3 -2 -8 15 -11 17 -32 3 -32 -9 0 -8 -4 2 -10 8 -5 11
-10 5 -10 -5 0 -5 -4 2 -8 7 -4 13 -22 15 -39 1 -17 5 -30 9 -27 6 3 17 -25
17 -43 0 -3 7 -10 16 -15 9 -5 14 -13 11 -19 -4 -5 -1 -9 6 -9 7 0 9 -3 6 -7
-4 -3 0 -15 10 -25 9 -10 12 -18 7 -18 -5 0 -10 -11 -10 -25 -1 -16 2 -23 10
-18 6 3 2 -4 -9 -17 -13 -15 -15 -21 -5 -16 10 5 9 3 -2 -6 -9 -8 -20 -26 -23
-41 -4 -15 -11 -25 -15 -22 -4 2 -6 -6 -6 -18 1 -12 -4 -29 -12 -39 -9 -11
-10 -18 -2 -23 5 -3 7 -12 3 -18 -12 -19 -12 -97 -1 -97 6 0 4 -8 -3 -17 -12
-14 -12 -16 0 -8 11 6 13 3 9 -13 -4 -14 -2 -20 5 -15 6 4 8 0 4 -10 -3 -9 -1
-17 4 -19 5 -2 11 -13 12 -25 0 -12 4 -20 8 -17 7 4 25 -37 20 -44 -1 -2 8
-12 20 -23 12 -10 18 -19 14 -19 -5 0 0 -7 11 -15 10 -8 15 -15 11 -15 -5 0
-1 -7 7 -16 9 -8 14 -19 11 -24 -3 -5 0 -10 6 -12 6 -2 12 -18 12 -35 1 -17 5
-29 8 -27 4 2 6 -11 5 -28 -1 -18 2 -39 7 -46 6 -8 5 -12 -4 -12 -11 0 -11 -2
1 -10 10 -6 11 -10 3 -10 -9 0 -10 -7 -3 -26 6 -15 6 -23 1 -19 -5 3 -12 1
-16 -5 -3 -5 -2 -10 3 -10 6 0 8 -10 4 -22 -4 -16 -2 -19 9 -13 11 7 12 6 2
-7 -7 -8 -10 -17 -7 -21 3 -3 0 -15 -6 -27 -7 -12 -8 -20 -2 -16 5 3 13 -1 16
-10 9 -22 8 -26 -5 -18 -8 4 -8 1 0 -14 6 -12 10 -25 9 -29 -1 -4 3 -18 10
-29 6 -12 8 -24 5 -28 -3 -3 -2 -6 4 -6 11 0 27 -37 23 -55 -1 -5 1 -7 4 -4 4
3 23 -10 44 -30 20 -20 60 -56 88 -81 45 -39 96 -120 76 -120 -4 0 -2 -4 5 -8
6 -4 13 -21 15 -37 2 -17 7 -33 12 -36 5 -4 9 -20 10 -37 0 -17 4 -28 7 -26 7
4 19 -19 18 -32 0 -7 30 -26 80 -50 19 -9 50 -27 68 -41 19 -15 48 -27 66 -29
88 -7 101 -15 180 -118 15 -20 51 -50 80 -66 45 -26 61 -30 117 -29 36 1 83 8
105 16 66 24 123 21 185 -9 105 -52 192 -60 285 -28 81 28 146 29 240 5 97
-25 105 -25 190 9 36 14 70 24 74 21 5 -2 59 -80 121 -172 307 -456 405 -599
419 -610 9 -7 39 -13 66 -13 50 0 95 -20 95 -42 0 -18 71 -77 86 -71 21 8 17
56 -6 76 -11 9 -20 23 -20 31 0 8 -10 22 -21 30 -19 13 -20 19 -11 43 21 53
19 102 -6 129 -9 10 -47 57 -82 104 -36 47 -67 87 -71 90 -3 3 -52 66 -110
140 -57 74 -109 142 -116 150 -78 96 -85 110 -58 110 27 0 97 41 142 83 81 76
152 114 255 137 90 20 122 60 159 197 20 74 39 115 63 138 6 6 56 50 110 100
114 104 135 139 130 223 -1 31 -5 98 -8 147 -6 116 8 168 77 281 128 213 142
299 70 449 -47 100 -52 174 -14 245 13 25 31 61 42 81 36 71 27 152 -28 267
-34 70 -111 162 -137 162 -6 0 -33 20 -60 43 l-48 43 -4 89 c-1 50 -8 106 -13
125 -15 48 -16 46 27 71 268 164 520 447 547 615 6 39 4 43 -27 62 -71 43
-206 66 -393 65 -229 0 -347 -27 -457 -104 -14 -11 -28 -19 -30 -19 -3 0 -19
30 -38 66 -18 36 -43 72 -56 81 -13 8 -21 19 -19 24 3 4 -4 6 -15 4 -11 -2
-20 0 -20 6 0 5 -11 9 -25 9 -14 0 -25 4 -25 8 0 4 -14 9 -31 10 -18 1 -37 6
-43 10 -6 3 -19 5 -30 3 -16 -2 -17 2 -11 38 5 33 2 48 -15 76 -20 32 -40 51
-24 23 6 -10 4 -10 -7 0 -7 6 -21 12 -31 12 -10 0 -18 6 -18 13 0 8 -4 7 -10
-3 -5 -8 -10 -10 -10 -3 0 7 -18 10 -52 8 -83 -6 -103 -9 -110 -19 -10 -14
-39 14 -55 52 -7 17 -18 32 -24 32 -5 0 -7 4 -4 10 4 6 -1 7 -11 3 -13 -5 -15
-3 -9 8 4 8 5 11 0 7 -4 -4 -15 -2 -23 5 -13 10 -14 9 -7 -3 7 -12 4 -11 -17
2 -20 13 -28 14 -31 5 -4 -9 -6 -9 -6 1 -1 6 -8 12 -17 12 -9 0 -12 -5 -8 -12
4 -7 -1 -6 -12 3 -24 20 -109 16 -133 -5 -10 -9 -23 -16 -29 -16 -7 0 -12 -5
-12 -12 0 -6 -3 -9 -6 -5 -3 3 -23 -1 -44 -8 -21 -7 -41 -11 -44 -8 -3 4 -6 0
-6 -7 0 -9 -5 -7 -16 6 -8 10 -12 13 -9 6 8 -16 -26 -13 -37 3 -5 6 -8 5 -8
-2 0 -13 -69 20 -81 39 -3 5 -10 10 -15 11 -5 1 -8 4 -7 7 1 3 -11 6 -25 7
-15 0 -28 6 -30 12 -3 9 -8 8 -20 -1 -9 -7 -13 -8 -9 -2 4 7 -2 14 -13 17 -11
3 -20 0 -20 -6 0 -7 -5 -6 -11 3 -8 12 -12 12 -16 2 -4 -10 -8 -10 -19 -1 -11
9 -14 9 -14 0z"/>
</g>
</svg>
