<svg xmlns="http://www.w3.org/2000/svg" xmlns:xlink="http://www.w3.org/1999/xlink" width="63.214" height="82.577" viewBox="0 0 63.214 82.577">
  <defs>
    <filter id="LIGHT" x="0" y="0" width="53.335" height="53.335" filterUnits="userSpaceOnUse">
      <feOffset dx="-6" dy="-6" input="SourceAlpha"/>
      <feGaussianBlur stdDeviation="5" result="blur"/>
      <feFlood flood-color="#f7f7f7" flood-opacity="0.8"/>
      <feComposite operator="in" in2="blur"/>
      <feComposite in="SourceGraphic"/>
    </filter>
    <filter id="DARK" x="9.879" y="9.879" width="53.335" height="53.335" filterUnits="userSpaceOnUse">
      <feOffset dx="6" dy="6" input="SourceAlpha"/>
      <feGaussianBlur stdDeviation="5" result="blur-2"/>
      <feFlood flood-opacity="0.2"/>
      <feComposite operator="in" in2="blur-2"/>
      <feComposite in="SourceGraphic"/>
    </filter>
    <filter id="LIGHT-2" x="0" y="15.121" width="53.334" height="53.335" filterUnits="userSpaceOnUse">
      <feOffset dx="-6" dy="-6" input="SourceAlpha"/>
      <feGaussianBlur stdDeviation="5" result="blur-3"/>
      <feFlood flood-color="#f7f7f7" flood-opacity="0.8"/>
      <feComposite operator="in" in2="blur-3"/>
      <feComposite in="SourceGraphic"/>
    </filter>
    <filter id="DARK-2" x="9.879" y="29.242" width="53.334" height="53.335" filterUnits="userSpaceOnUse">
      <feOffset dx="6" dy="6" input="SourceAlpha"/>
      <feGaussianBlur stdDeviation="5" result="blur-4"/>
      <feFlood flood-opacity="0.2"/>
      <feComposite operator="in" in2="blur-4"/>
      <feComposite in="SourceGraphic"/>
    </filter>
  </defs>
  <g id="Component_13_1" data-name="Component 13 – 1" transform="translate(18.879 18.879)">
    <g id="Component_1_129" data-name="Component 1 – 129" transform="translate(4.243 0) rotate(45)">
      <g transform="matrix(0.71, -0.71, 0.71, 0.71, -29.7, 3)" filter="url(#LIGHT)">
        <rect id="LIGHT-3" data-name="LIGHT" width="27" height="6" rx="3" transform="translate(25.24 21) rotate(45)" fill="#fff"/>
      </g>
      <g transform="matrix(0.71, -0.71, 0.71, 0.71, -29.7, 3)" filter="url(#DARK)">
        <rect id="DARK-3" data-name="DARK" width="27" height="6" rx="3" transform="translate(23.12 18.88) rotate(45)" fill="#fff"/>
      </g>
    </g>
    <g id="Component_1_130" data-name="Component 1 – 130" transform="translate(0 38.456) rotate(-45)">
      <g transform="matrix(0.71, 0.71, -0.71, 0.71, 27.19, -53.89)" filter="url(#LIGHT-2)">
        <rect id="LIGHT-4" data-name="LIGHT" width="27" height="6" rx="3" transform="translate(21 55.21) rotate(-45)" fill="#fff"/>
      </g>
      <g transform="matrix(0.71, 0.71, -0.71, 0.71, 27.19, -53.89)" filter="url(#DARK-2)">
        <rect id="DARK-4" data-name="DARK" width="27" height="6" rx="3" transform="translate(18.88 57.33) rotate(-45)" fill="#fff"/>
      </g>
    </g>
  </g>
</svg>
