<svg xmlns="http://www.w3.org/2000/svg" xmlns:xlink="http://www.w3.org/1999/xlink" width="83.012" height="107.879" viewBox="0 0 83.012 107.879">
  <defs>
    <filter id="LIGHT" x="0" y="24.867" width="68.891" height="68.891" filterUnits="userSpaceOnUse">
      <feOffset dx="-6" dy="-6" input="SourceAlpha"/>
      <feGaussianBlur stdDeviation="5" result="blur"/>
      <feFlood flood-color="#f7f7f7" flood-opacity="0.8"/>
      <feComposite operator="in" in2="blur"/>
      <feComposite in="SourceGraphic"/>
    </filter>
    <filter id="DARK" x="14.121" y="38.988" width="68.891" height="68.891" filterUnits="userSpaceOnUse">
      <feOffset dx="6" dy="6" input="SourceAlpha"/>
      <feGaussianBlur stdDeviation="5" result="blur-2"/>
      <feFlood flood-opacity="0.2"/>
      <feComposite operator="in" in2="blur-2"/>
      <feComposite in="SourceGraphic"/>
    </filter>
    <filter id="LIGHT-2" x="0" y="0" width="68.891" height="68.891" filterUnits="userSpaceOnUse">
      <feOffset dx="-6" dy="-6" input="SourceAlpha"/>
      <feGaussianBlur stdDeviation="5" result="blur-3"/>
      <feFlood flood-color="#f7f7f7" flood-opacity="0.8"/>
      <feComposite operator="in" in2="blur-3"/>
      <feComposite in="SourceGraphic"/>
    </filter>
    <filter id="DARK-2" x="14.121" y="9.879" width="68.891" height="68.891" filterUnits="userSpaceOnUse">
      <feOffset dx="6" dy="6" input="SourceAlpha"/>
      <feGaussianBlur stdDeviation="5" result="blur-4"/>
      <feFlood flood-opacity="0.2"/>
      <feComposite operator="in" in2="blur-4"/>
      <feComposite in="SourceGraphic"/>
    </filter>
  </defs>
  <g id="Component_4_2" data-name="Component 4 – 2" transform="translate(54.948 86.879) rotate(180)">
    <g id="Group_10" data-name="Group 10" transform="translate(-6.064 0)">
      <g id="Component_1_36" data-name="Component 1 – 36" transform="translate(6.778 0) rotate(45)">
        <g transform="matrix(-0.71, 0.71, -0.71, -0.71, 99.78, 23.08)" filter="url(#LIGHT)">
          <rect id="LIGHT-3" data-name="LIGHT" width="44" height="11" rx="5.5" transform="translate(52.11 84.76) rotate(-135)" fill="#f29104"/>
        </g>
        <g transform="matrix(-0.71, 0.71, -0.71, -0.71, 99.78, 23.08)" filter="url(#DARK)">
          <rect id="DARK-3" data-name="DARK" width="44" height="11" rx="5.5" transform="translate(54.23 86.88) rotate(-135)" fill="#f29104"/>
        </g>
      </g>
      <g id="Component_1_37" data-name="Component 1 – 37" transform="translate(-1 60.222) rotate(-45)">
        <g transform="matrix(-0.71, -0.71, 0.71, -0.71, 25, 62.7)" filter="url(#LIGHT-2)">
          <rect id="LIGHT-4" data-name="LIGHT" width="44" height="11" rx="5.5" transform="translate(59.89 28.78) rotate(135)" fill="#f29104"/>
        </g>
        <g transform="matrix(-0.71, -0.71, 0.71, -0.71, 25, 62.7)" filter="url(#DARK-2)">
          <rect id="DARK-4" data-name="DARK" width="44" height="11" rx="5.5" transform="translate(62.01 26.66) rotate(135)" fill="#f29104"/>
        </g>
      </g>
    </g>
  </g>
</svg>
